# xmcd
#
# Track frame offsets: 
#        150
#        17790
#        37257
#        58029
#        76118
#        95343
#        112827
#        133512
#        150034
#        169718
#        190293
#        210262
#        228443
#        246532
#        263054
#
# Disc length: 3740 seconds
#
# Revision: 0
# Processed by: cddbd v1.5.2PL0 Copyright (c) Steve Scherf et al.
# Submitted via: ExactAudioCopyFreeDBPlugin 1.0
#
DISCID=b80e9a0f
DTITLE=James Ingram - The Greatest Hits: Power Of Great Music
DYEAR=1991
DGENRE=R&B
TTITLE0=Where Did My Heart Go? (End Title) (City Slickers)
TTITLE1=How Do You Keep The Music Playing? (Theme From Best Friends)
TTITLE2=Just Once
TTITLE3=Somewhere Out There
TTITLE4=I Don't Have The Heart
TTITLE5=There's No Easy Way
TTITLE6=Get Ready
TTITLE7=Baby, Come To Me
TTITLE8=One Hundred Ways
TTITLE9=Yah Mo B There
TTITLE10=Remember The Dream (Theme For Black Entertainment TV's Young 
TTITLE10=Sisters)
TTITLE11=Whatever We Imagine
TTITLE12=Bonus Track
TTITLE13=Bonus Track
TTITLE14=Bonus Track
EXTD=
EXTT0=
EXTT1=
EXTT2=
EXTT3=
EXTT4=
EXTT5=
EXTT6=
EXTT7=
EXTT8=
EXTT9=
EXTT10=
EXTT11=
EXTT12=
EXTT13=
EXTT14=
PLAYORDER=
